# xmcd CD database file
#
# Track frame offsets:
#	150
#	22219
#	34738
#	53828
#	73319
#	91153
#	104102
#	126702
#	140456
#	159449
#	179385
#	199756
#	223574
#	240607
#	251520
#	274989
#	291899
#	303755
#	331319
#
# Disc length: 4718 seconds
#
# Revision: 0
# Processed by: cddbd v1.4PL0 Copyright (c) Steve Scherf et al.
# Submitted via: CDex 1.50beta9
#
DISCID=29126c13
DTITLE=Depeche Mode - Bestseller
DYEAR=2000
DGENRE=New Age
TTITLE0=Personal Jesus
TTITLE1=It Doesn't Matter Two
TTITLE2=Little 15
TTITLE3=World In My Eyes
TTITLE4=Enjoy The Silence
TTITLE5=Never Turn Your Back On Mother Earth
TTITLE6=Behind The Wheel
TTITLE7=I Want You Now
TTITLE8=A Question Of Me
TTITLE9=Sacred
TTITLE10=Strange Love
TTITLE11=Clean
TTITLE12=Something To Do
TTITLE13=Dressed In Black
TTITLE14=Useless
TTITLE15=The Thing You Sad
TTITLE16=World Full Of Nothing
TTITLE17=Waiting For The Night
TTITLE18=Barrel of A Gun
EXTD=YEAR: 2000
EXTT0=
EXTT1=
EXTT2=
EXTT3=
EXTT4=
EXTT5=
EXTT6=
EXTT7=
EXTT8=
EXTT9=
EXTT10=
EXTT11=
EXTT12=
EXTT13=
EXTT14=
EXTT15=
EXTT16=
EXTT17=
EXTT18=
PLAYORDER=
